<svg xmlns="http://www.w3.org/2000/svg" viewBox="0 0 264.0682 45"><g id="efbf1197-3260-443e-a482-a25fb519c0d3" data-name="Layer 2"><g id="b5c3c1fa-9922-4c91-a4b5-fb3a9122e77c" data-name="Layer 1"><path d="M75.2337,31.2a9.25,9.25,0,0,0,3.57-3.57,10.2269,10.2269,0,0,0,1.2973-5.129,10.2325,10.2325,0,0,0-1.2973-5.13,9.2407,9.2407,0,0,0-3.57-3.57,10.86,10.86,0,0,0-10.2195,0,9.2271,9.2271,0,0,0-3.5689,3.57,10.218,10.218,0,0,0-1.2987,5.13,10.2124,10.2124,0,0,0,1.2987,5.129,9.2365,9.2365,0,0,0,3.5689,3.57,10.8592,10.8592,0,0,0,10.2195,0M62.2968,35.2146a13.9514,13.9514,0,0,1-5.4749-5.2319,14.3666,14.3666,0,0,1-1.9873-7.4821,14.3648,14.3648,0,0,1,1.9873-7.4836,13.9521,13.9521,0,0,1,5.4749-5.2319,17.1886,17.1886,0,0,1,15.6557,0,14.0212,14.0212,0,0,1,5.4748,5.2119,14.3514,14.3514,0,0,1,1.9873,7.5036,14.3425,14.3425,0,0,1-1.9873,7.5021,14.02,14.02,0,0,1-5.4748,5.2119,17.1886,17.1886,0,0,1-15.6557,0"/><polygon points="116.237 8.305 116.237 36.695 111.898 36.695 96.243 17.47 96.243 36.695 91.011 36.695 91.011 8.305 95.35 8.305 111.005 27.53 111.005 8.305 116.237 8.305"/><polygon points="144.219 32.274 144.219 36.694 122.927 36.694 122.927 8.305 143.652 8.305 143.652 12.725 128.199 12.725 128.199 20.107 141.907 20.107 141.907 24.446 128.199 24.446 128.199 32.274 144.219 32.274"/><polygon points="156.795 12.766 147.386 12.766 147.386 8.306 171.476 8.306 171.476 12.766 162.067 12.766 162.067 36.695 156.795 36.695 156.795 12.766"/><polygon points="196.744 32.274 196.744 36.694 175.452 36.694 175.452 8.305 196.176 8.305 196.176 12.725 180.723 12.725 180.723 20.107 194.432 20.107 194.432 24.446 180.723 24.446 180.723 32.274 196.744 32.274"/><path d="M220.04,25.9873l-5.3548-12.41-5.3133,12.41Zm1.7431,4.1376H207.5875L204.79,36.6955h-5.4348l12.7755-28.39h5.1905l12.8169,28.39H224.622Z"/><polygon points="259.079 36.695 259.039 17.876 249.711 33.45 247.358 33.45 238.03 18.12 238.03 36.695 233.001 36.695 233.001 8.305 237.34 8.305 248.615 27.123 259.688 8.305 264.027 8.305 264.068 36.695 259.079 36.695"/><polygon points="19.503 0 19.503 45 9.445 39.602 9.445 17.156 0 22.499 0 11.513 19.503 0"/><polygon points="24.705 0 24.705 45 34.763 39.602 34.763 17.156 44.208 22.499 44.208 11.513 24.705 0"/></g></g></svg>