<svg xmlns="http://www.w3.org/2000/svg" width="300" height="300" viewBox="0 0 300 300"><defs><style>.f56453c0-ee49-4f51-858d-fb67ba5922f8{fill:#9ceb6c;}</style></defs><g id="e5d2995e-b3c2-46a8-8b52-003f8f73e68f" data-name="Layer 2"><g id="b143b7a0-37a4-4cd4-812b-2ce23d5c782a" data-name="Layer 1"><path class="f56453c0-ee49-4f51-858d-fb67ba5922f8" d="M128.57,166.629c0,4.0816,2.4088,6.9177,8.9953,9.5869V158.7837C132.3842,160.5112,128.57,163.2736,128.57,166.629Z"/><path class="f56453c0-ee49-4f51-858d-fb67ba5922f8" d="M145.5026,157.0829v21.7565c1.7172.4818,3.5846.97,5.6211,1.47q1.7041.4185,3.3742.8522h.0005V157.0829a39.7808,39.7808,0,0,0-8.9958,0Z"/><path class="f56453c0-ee49-4f51-858d-fb67ba5922f8" d="M154.4974,188.1168c-1.7172-.4817-3.5846-.97-5.6211-1.47q-1.7041-.4185-3.3742-.8522v24.0791a39.7808,39.7808,0,0,0,8.9958,0h0Z"/><path class="f56453c0-ee49-4f51-858d-fb67ba5922f8" d="M162.7007,86.348l-.0144-.0008H137.3c-2.48,0-4.4979,1.68-4.4979,3.7444s2.0178,3.7445,4.4979,3.7445h25.3988c2.48,0,4.4979-1.68,4.4979-3.7445,0-2.0622-2.0128-3.7394-4.489-3.7439Z"/><path class="f56453c0-ee49-4f51-858d-fb67ba5922f8" d="M146.0313,79.74V68.9479c0-1.8247,1.7772-3.3038,3.9687-3.3038s3.9687,1.4794,3.9687,3.3038V79.74h5.7781l9.518-26.4117a15.6437,15.6437,0,0,1-6.576,1.3031,15.8276,15.8276,0,0,1-8.5553-2.3161,7.7323,7.7323,0,0,0-8.2977-.0012,15.7962,15.7962,0,0,1-8.5478,2.3173,15.6219,15.6219,0,0,1-6.55-1.2953l9.515,26.4039Z"/><path class="f56453c0-ee49-4f51-858d-fb67ba5922f8" d="M167.8663,107.3009c-2.485-2.4129-4.8419-4.7038-7.0166-6.8575h-6.8805v3.7445c0,1.8247-1.7772,3.3038-3.9687,3.3038s-3.9687-1.4794-3.9687-3.3038v-3.7445h-6.8805c-2.1757,2.1537-4.5315,4.4446-7.0167,6.8575-21.6479,21.0209-54.3624,52.7879-54.3624,81.4633,0,33.1551,32.4011,60.1284,72.2278,60.1284s72.2277-26.9733,72.2288-60.1284C222.2288,160.0888,189.5143,128.3218,167.8663,107.3009Zm11.5012,93.0263c0,6.703-6.8493,12.3439-16.9327,14.915v5.238c0,1.8248-1.7767,3.3039-3.9687,3.3039s-3.9687-1.48-3.9687-3.3039v-3.9278q-2.1957.181-4.4979.1837-2.3,0-4.4979-.1837V220.48c0,1.8248-1.7767,3.3039-3.9687,3.3039s-3.9687-1.48-3.9687-3.3039v-5.238c-10.0834-2.5711-16.9327-8.2125-16.9327-14.915,0-1.8248,1.7766-3.3039,3.9687-3.3039s3.9686,1.4794,3.9686,3.3039c0,3.3554,3.8138,6.1177,8.9954,7.8453v-24.708c-9.723-3.301-16.9327-7.9653-16.9327-16.8355,0-6.703,6.8493-12.3439,16.9327-14.9151V146.476c0-1.8248,1.7767-3.3039,3.9687-3.3039s3.9687,1.48,3.9687,3.3039v3.9279q2.1957-.1812,4.4979-.1839,2.3,0,4.4979.1839V146.476c0-1.8248,1.7766-3.3038,3.9687-3.3038s3.9687,1.4794,3.9687,3.3038v5.2379c10.0834,2.5712,16.9327,8.2126,16.9327,14.9151,0,1.8249-1.7767,3.3039-3.9687,3.3039s-3.9687-1.48-3.9687-3.3039c0-3.3554-3.8138-6.1178-8.9953-7.8453v24.708C172.1578,186.7927,179.3676,191.457,179.3675,200.3272Z"/><path class="f56453c0-ee49-4f51-858d-fb67ba5922f8" d="M150,0A150,150,0,1,0,300,150,150,150,0,0,0,150,0Zm0,255.5c-44.2032,0-80.1647-29.9377-80.1647-66.7358,0-31.12,33.865-64.0038,56.2728-85.7641q2.264-2.1975,4.3746-4.2575c-3.38-1.8524-5.6172-5.0376-5.6172-8.651,0-4.2224,3.0544-7.8605,7.4191-9.469L120.8,48.7529a2.8637,2.8637,0,0,1,.6173-2.9214A4.28,4.28,0,0,1,124.6012,44.5a15.7869,15.7869,0,0,1,8.5463,2.3177,7.7118,7.7118,0,0,0,8.2829,0,16.9406,16.9406,0,0,1,17.1025-.0013,7.7515,7.7515,0,0,0,8.3107,0,15.8311,15.8311,0,0,1,8.5552-2.316,4.2778,4.2778,0,0,1,3.1836,1.3315,2.8649,2.8649,0,0,1,.6173,2.9214l-11.4849,31.87c4.3648,1.6085,7.4192,5.2466,7.4192,9.4691,0,3.6133-2.2371,6.7985-5.6177,8.651,1.4025,1.3714,2.8658,2.7924,4.3746,4.2574,22.4088,21.76,56.2738,54.6441,56.2738,85.7641C230.1647,225.5623,194.2032,255.5,150,255.5Z"/><path class="f56453c0-ee49-4f51-858d-fb67ba5922f8" d="M162.4348,208.1725c5.1815-1.7276,8.9953-4.49,8.9953-7.8453,0-4.0815-2.4089-6.9173-8.9953-9.5869Z"/></g></g></svg>