<svg xmlns="http://www.w3.org/2000/svg" width="300" height="300" viewBox="0 0 300 300"><defs><style>.fb3871f8-69de-4778-81e1-996d5addc741{fill:#ebcf6c;}</style></defs><g id="e609deb0-d09a-452b-8e5b-d517b036e282" data-name="Layer 2"><g id="b66b8383-69ba-45c9-b61d-17980ee66e2c" data-name="Layer 1"><path class="fb3871f8-69de-4778-81e1-996d5addc741" d="M150,0A150,150,0,1,0,300,150,150,150,0,0,0,150,0ZM270.33,91.0622c-12.9011,4.8084-28.1329,4.0171-41.6491-2.856l15.9436-29.069A59.6009,59.6009,0,0,1,270.33,91.0622Zm-29.4431-33.975-15.9435,29.069A53.0242,53.0242,0,0,1,200.1485,52.57,58.1715,58.1715,0,0,1,240.8864,57.0872Zm-45.2393-3.2047A58.1655,58.1655,0,0,0,222.6652,90.309L213.5546,106.92,163.722,79.5881A57.19,57.19,0,0,1,195.6471,53.8825Zm-38.72,70.5961a59.601,59.601,0,0,1,4.5173-40.7378l49.8326,27.3317-9.1106,16.6109A62.2091,62.2091,0,0,0,156.9271,124.4786Zm42.9616,7.3575-15.9434,29.069A59.6008,59.6008,0,0,1,158.24,128.98,56.9929,56.9929,0,0,1,199.8887,131.8361ZM139.9869,77.3429a23.8506,23.8506,0,0,1,25.9092-25.9092,29.7312,29.7312,0,0,1-25.9092,25.9092ZM115.2783,26.7252a29.5987,29.5987,0,0,1,17.42-8.489,23.8507,23.8507,0,0,1-25.9091,25.9092A29.598,29.598,0,0,1,115.2783,26.7252ZM130.0234,41.47A29.7359,29.7359,0,0,0,138.66,18.0887a29.796,29.796,0,0,1,27.3837,27.3838A29.7937,29.7937,0,0,0,134.0256,77.49a29.796,29.796,0,0,1-27.3837-27.3838A29.7357,29.7357,0,0,0,130.0234,41.47Zm.3329,55.3647c3.3155,5.4252,1.3282,16.97-1.1814,25.681L104.259,89.82C114.1718,89.4134,126.505,90.5294,130.3563,96.8349ZM39.053,179.0842c-5.6737-.8874-8.9759-2.0443-10.734-4.3423-1.7947-2.327-1.9915-5.8361-1.4964-11.4174.2389-2.6665.5486-5.2588.9482-7.7986l18.6,24.4173C43.9629,179.7635,41.5293,179.4752,39.053,179.0842ZM229.5251,255.121a13.95,13.95,0,0,1-13.95,13.95,14.9049,14.9049,0,0,1-9.9641-3.9856l-23.6746-23.9138H117.6884L94.0138,265.0851a14.9048,14.9048,0,0,1-9.9641,3.9856,13.95,13.95,0,0,1-13.95-13.95v-1.9928L78.0714,194.3a36.1448,36.1448,0,0,1,12.4535-24.1588c-2.0056,1.1042-4.05,2.1324-6.1321,3.0663a76.8078,76.8078,0,0,1-26.3448,6.785L30.4,143.7122a69.5788,69.5788,0,0,1,12.2672-23.586c13.247-16.7795,32.808-26.1048,50.8008-29.2019l31.9582,41.9372a79.7152,79.7152,0,0,1-26.1246,31.7077,35.8,35.8,0,0,1,14.64-3.11h71.7412c.9289,0,1.8466.0451,2.7576.1142l15.1855-27.687a53.0263,53.0263,0,0,1,24.7944,33.5864,35.5722,35.5722,0,0,1-4.9167,1.0845,57.2718,57.2718,0,0,1-15.85.4A36.159,36.159,0,0,1,221.5538,194.3l7.9713,58.8278Zm3.8122-88.7335a62.2083,62.2083,0,0,0-27.0182-36.4264L215.43,113.35l49.8326,27.3317A57.1894,57.1894,0,0,1,233.3373,166.3875Zm-15.63-57.19,9.1106-16.6108c14.7624,7.5566,30.8648,7.7451,45.2394,3.2047a59.6006,59.6006,0,0,1-4.5174,40.7379Z"/><path class="fb3871f8-69de-4778-81e1-996d5addc741" d="M102.4474,127.2292a2.47,2.47,0,0,0,.4651-3.4439L95.696,114.278a2.4574,2.4574,0,1,0-3.9091,2.979l2.1964,2.8822L89.5338,123.53l-2.1965-2.8823a2.4573,2.4573,0,1,0-3.909,2.9789l2.1964,2.8823L81.1752,129.9l-2.1965-2.8823a2.4574,2.4574,0,1,0-3.9091,2.9789l2.1965,2.8823-4.4495,3.3907L70.62,133.3871a2.4574,2.4574,0,1,0-3.9091,2.9789l2.1965,2.8824-4.45,3.3906-2.1964-2.8822a2.4574,2.4574,0,0,0-3.9091,2.9789l2.1965,2.8823-4.4495,3.3907-2.1966-2.8822a2.4573,2.4573,0,1,0-3.909,2.9788l7.2345,9.4936a2.4574,2.4574,0,1,0,3.9091-2.979l-1.915-2.5129,4.45-3.3908,1.914,2.521a2.4574,2.4574,0,0,0,3.9091-2.979l-1.923-2.5141,4.45-3.3907,1.914,2.5209a2.4573,2.4573,0,1,0,3.909-2.9789l-1.9229-2.5141,4.45-3.3907,1.9138,2.5209a2.4575,2.4575,0,1,0,3.9092-2.979l-1.923-2.5139,4.45-3.3909,1.9149,2.513a2.4574,2.4574,0,0,0,3.9092-2.9788l-1.914-2.521,4.45-3.3908,1.923,2.5141A2.47,2.47,0,0,0,102.4474,127.2292Z"/><circle class="fb3871f8-69de-4778-81e1-996d5addc741" cx="185.6832" cy="211.2791" r="5.9784" transform="translate(-43.575 48.3134) rotate(-13.2826)"/><circle class="fb3871f8-69de-4778-81e1-996d5addc741" cx="199.6329" cy="197.3295" r="5.9784"/><circle class="fb3871f8-69de-4778-81e1-996d5addc741" cx="185.6832" cy="183.3798" r="5.9784" transform="matrix(0.9871, -0.1602, 0.1602, 0.9871, -26.9766, 32.1111)"/><circle class="fb3871f8-69de-4778-81e1-996d5addc741" cx="171.7335" cy="197.3295" r="5.9784"/><polygon class="fb3871f8-69de-4778-81e1-996d5addc741" points="117.928 177.401 109.956 177.401 109.956 193.344 94.014 193.344 94.014 201.315 109.956 201.315 109.956 217.258 117.928 217.258 117.928 201.315 133.87 201.315 133.87 193.344 117.928 193.344 117.928 177.401"/></g></g></svg>