<svg xmlns="http://www.w3.org/2000/svg" width="300" height="300" viewBox="0 0 300 300"><defs><style>.f01c5c53-4907-44a0-b810-d0a347d6a252{fill:#eb6c6c;}</style></defs><g id="e040d33a-8245-4205-b5f5-b54c6c2bdd58" data-name="Layer 2"><g id="f858c54d-cf86-49f7-8074-0f88fcf36d09" data-name="Layer 1"><path class="f01c5c53-4907-44a0-b810-d0a347d6a252" d="M94.7944,124.5592c-9.9716,0-14.3916,7.6069-14.3916,23.2324s4.42,23.2324,14.3916,23.2324c10.0743,0,14.4947-7.6074,14.4947-23.2324S104.8687,124.5592,94.7944,124.5592Z"/><path class="f01c5c53-4907-44a0-b810-d0a347d6a252" d="M150,0A150,150,0,1,0,300,150,150,150,0,0,0,150,0ZM57.0669,180.173h-12.85v-46.67h-12.13v-8.43c9.0464,0,13.1582-3.084,15.5225-9.8687h9.4575Zm37.7275,1.2334c-17.27,0-27.9614-12.13-27.9614-33.6148s10.6914-33.6152,27.9614-33.6152c17.3731,0,28.064,12.13,28.064,33.6152S112.1675,181.4064,94.7944,181.4064Zm61.8863,0c-17.27,0-27.9615-12.13-27.9615-33.6148s10.6914-33.6152,27.9615-33.6152c17.373,0,28.0639,12.13,28.0639,33.6152S174.0537,181.4064,156.6807,181.4064Zm34.0283-48.315c0-13.3637,7.2988-20.8681,16.1391-20.8681,9.355,0,15.523,7.1958,15.523,19.9428,0,14.0835-7.4019,21.0738-16.0366,21.0738C198.0078,153.24,190.8115,146.5577,190.709,133.0914Zm15.0088,48.2124,39.2685-69.08h5.7569l-39.2691,69.0805Zm44.2031-.4111c-8.3267,0-15.5225-6.6821-15.6255-20.0459,0-13.4663,7.2988-20.9707,16.14-20.9707,9.3545,0,15.4194,7.1958,15.4194,19.9429C265.8545,173.9025,258.4531,180.8927,249.9209,180.8927Z"/><path class="f01c5c53-4907-44a0-b810-d0a347d6a252" d="M215.1748,132.5773c0-8.1211-2.3643-14.9058-8.6348-14.9058-5.6538,0-8.6352,6.6821-8.6352,15.1113-.2056,8.5323,2.9814,15.0088,8.6352,15.0088C212.5024,147.7916,215.1748,141.4181,215.1748,132.5773Z"/><path class="f01c5c53-4907-44a0-b810-d0a347d6a252" d="M156.6807,124.5592c-9.9717,0-14.3916,7.6069-14.3916,23.2324s4.42,23.2324,14.3916,23.2324c10.0742,0,14.4946-7.6074,14.4946-23.2324S166.7549,124.5592,156.6807,124.5592Z"/><path class="f01c5c53-4907-44a0-b810-d0a347d6a252" d="M250.1265,145.3243c-5.6538,0-8.7378,6.6817-8.7378,15.1114-.1031,8.5322,3.1865,15.0088,8.7378,15.0088,5.9624,0,8.6352-6.3736,8.6352-15.2144C258.7617,152.109,256.397,145.3243,250.1265,145.3243Z"/></g></g></svg>