<svg xmlns="http://www.w3.org/2000/svg" width="300" height="300" viewBox="0 0 300 300"><defs><style>.baaabf4b-1610-4d8f-893a-0474bdd457c9{fill:#ff9ff1;}</style></defs><g id="f7ae35ce-a77a-45a9-a8ff-448d5c22145c" data-name="Layer 2"><g id="ec124e4e-4d0b-40f4-93ed-9b2c0132cd64" data-name="Layer 1"><path class="baaabf4b-1610-4d8f-893a-0474bdd457c9" d="M106.2476,144.593a4.1935,4.1935,0,1,0,4.1933,4.1935A4.1935,4.1935,0,0,0,106.2476,144.593Z"/><path class="baaabf4b-1610-4d8f-893a-0474bdd457c9" d="M200.6931,116.48a13.4651,13.4651,0,0,0,9.7149,3.88,13.7291,13.7291,0,0,0,13.2874-13.8034v-4.6345H196.6538V106.84A13.4205,13.4205,0,0,0,200.6931,116.48Z"/><circle class="baaabf4b-1610-4d8f-893a-0474bdd457c9" cx="116.0323" cy="139.0016" r="4.1935"/><polygon class="baaabf4b-1610-4d8f-893a-0474bdd457c9" points="58.721 125.023 53.129 125.023 53.129 136.206 41.947 136.206 41.947 141.797 53.129 141.797 53.129 152.98 58.721 152.98 58.721 141.797 69.904 141.797 69.904 136.206 58.721 136.206 58.721 125.023"/><path class="baaabf4b-1610-4d8f-893a-0474bdd457c9" d="M96.4626,134.8081a4.1935,4.1935,0,1,0,4.1935,4.1935A4.1935,4.1935,0,0,0,96.4626,134.8081Z"/><path class="baaabf4b-1610-4d8f-893a-0474bdd457c9" d="M106.2476,125.0232a4.1935,4.1935,0,1,0,4.1933,4.1935A4.1935,4.1935,0,0,0,106.2476,125.0232Z"/><path class="baaabf4b-1610-4d8f-893a-0474bdd457c9" d="M150,0A150,150,0,1,0,300,150,150,150,0,0,0,150,0ZM137,179.539a9.7849,9.7849,0,0,1-9.7849,9.7849,10.4554,10.4554,0,0,1-6.9893-2.7956L103.62,169.7542H58.5531L41.9467,186.5283a10.4549,10.4549,0,0,1-6.9892,2.7956,9.7849,9.7849,0,0,1-9.7849-9.7849v-1.3978l5.5914-41.2643a25.2937,25.2937,0,0,1,25.1612-23.0364h50.3224a25.2939,25.2939,0,0,1,25.1611,23.0364L137,178.1412ZM264.21,215H156.1357a3.59,3.59,0,0,1-3.59-3.59V150a3.59,3.59,0,0,1,3.59-3.59,13.236,13.236,0,0,0,13.2212-13.2212V88.59a3.59,3.59,0,0,1,3.59-3.59h20.117a3.59,3.59,0,0,1,3.59,3.59v6.1529h27.0418V88.59a3.59,3.59,0,0,1,3.59-3.59h20.1134a3.59,3.59,0,0,1,3.59,3.59v44.5994A13.2256,13.2256,0,0,0,264.21,146.41a3.59,3.59,0,0,1,3.59,3.59v61.41A3.59,3.59,0,0,1,264.21,215Z"/><path class="baaabf4b-1610-4d8f-893a-0474bdd457c9" d="M249.7843,147.6118a20.2506,20.2506,0,0,1-5.9752-14.4227v-41.01h-12.934v14.377a20.9408,20.9408,0,0,1-20.3475,20.9817A20.7012,20.7012,0,0,1,189.4739,106.84V92.1794H176.5364v41.01a20.4334,20.4334,0,0,1-16.8108,20.0845v54.547H260.62V153.2772A20.2348,20.2348,0,0,1,249.7843,147.6118Zm-42.3849,47.0018a3.59,3.59,0,1,1,3.59-3.59A3.5888,3.5888,0,0,1,207.3994,194.6136Zm14.5623-30.1768a3.5866,3.5866,0,0,1-.1526.4842l-7.1653,17.7407a3.59,3.59,0,1,1-6.6567-2.6891l2.9179-7.2246a13.9229,13.9229,0,1,1,12.1922-13.8128A13.8452,13.8452,0,0,1,221.9617,164.4368Z"/><path class="baaabf4b-1610-4d8f-893a-0474bdd457c9" d="M209.1726,152.19a6.7453,6.7453,0,1,0,6.7454,6.7452A6.7527,6.7527,0,0,0,209.1726,152.19Z"/></g></g></svg>