<svg xmlns="http://www.w3.org/2000/svg" width="300" height="300" viewBox="0 0 300 300"><defs><style>.a0368fe8-091f-4751-9a38-028e00037054{fill:#b36ceb;}</style></defs><g id="ef7d9123-f949-4e68-b5fd-f8880163799c" data-name="Layer 2"><g id="e0b45b8b-1d35-4f40-934d-7dcb010e5014" data-name="Layer 1"><path class="a0368fe8-091f-4751-9a38-028e00037054" d="M155.5848,79.1354a1.2925,1.2925,0,0,0,.13-1.2154l-1.4063-4.3178c0-.0154.0084-.05-.0069-.0365l3.7026-2.69a1.1774,1.1774,0,0,0-.7158-2.2011l-4.54.0038c-.0154-.0054-.0431-.0254-.0373-.0046L151.2962,64.32a1.1774,1.1774,0,0,0-2.3144.0007l-1.4,4.319c-.0092.0126-.0372.033-.0161.0342h-4.5767a1.1773,1.1773,0,0,0-.7154,2.2011l3.6762,2.6658c.0088.0123.0191.0457.0268.0254l-1.4143,4.3523a1.2934,1.2934,0,0,0,.1294,1.2162,1.2093,1.2093,0,0,0,1.7434.1452l3.7042-2.69,3.7026,2.69a1.4455,1.4455,0,0,0,.8487.3068A1.0915,1.0915,0,0,0,155.5848,79.1354Z"/><path class="a0368fe8-091f-4751-9a38-028e00037054" d="M132.4164,64.8617c-.3875-.0161-.76-.0292-1.1044-.0292-1.9278,0-3.45,0-3.45,7.0374a6.9458,6.9458,0,0,0,4.6923,6.5614V65.0319C132.5062,64.9766,132.459,64.9205,132.4164,64.8617Z"/><path class="a0368fe8-091f-4751-9a38-028e00037054" d="M150,0A150,150,0,1,0,300,150,150,150,0,0,0,150,0Zm44.21,86.9235A19.8956,19.8956,0,1,1,174.32,106.8187,19.9174,19.9174,0,0,1,194.21,86.9235Zm-89.5234,0a19.8956,19.8956,0,1,1-19.8948,19.8952A19.9148,19.9148,0,0,1,104.6863,86.9235ZM239.112,168.9791a8.4195,8.4195,0,0,1-8.3149,7.1392,8.4565,8.4565,0,0,1-6.7951-3.44l-6.8327-9.3168c-.17-.2308-.3544-.4812-.5506-.7446l1.4964,16.7252,4.9683,23.5912c.5046,2.397,1.384,6.2885,1.96,8.6756l5.6991,23.6077a8.8764,8.8764,0,1,1-17.257,4.1666l-5.6995-23.6082c-.6079-2.5172-1.5383-6.6368-2.0745-9.1832l-4.2091-19.987h-2.8808l-1.5794,17.729a80.09,80.09,0,0,0-.21,8.0219l.937,25.6554a8.8757,8.8757,0,0,1-8.5469,9.194c-.1087.0042-.2193.0061-.3287.0061a8.8432,8.8432,0,0,1-8.8653-8.5527l-.9366-25.6553a96.9505,96.9505,0,0,1,.2681-10.2458l2.362-26.5086c.0062-.0726.0211-.1424.0292-.2139l-2.6577-29.6954-18.8756-12.8283a78.4283,78.4283,0,0,1-8.1564-6.5431l-1.922-1.8091-1.9227,1.81a78.5033,78.5033,0,0,1-8.1556,6.5416l-20.3457,13.8271-2.5686,28.6974c.0081.0723.0227.1413.0292.2139l2.3621,26.5094a96.1672,96.1672,0,0,1,.2619,10.2568l-.9309,24.62a8.8459,8.8459,0,0,1-8.8648,8.5419c-.1126,0-.2259-.0027-.34-.0069a8.8772,8.8772,0,0,1-8.5361-9.2059l.9308-24.6215a79.17,79.17,0,0,0-.2047-8.0093l-1.5794-17.729h-2.88l-11.06,52.5241a8.8647,8.8647,0,0,1-10.5157,6.8569,8.8759,8.8759,0,0,1-6.8565-10.5142L80.78,179.3458l1.3425-15.0028-6.1246,8.3514a8.4553,8.4553,0,0,1-6.795,3.44A8.42,8.42,0,0,1,62.42,162.7363l6.8327-9.3169c1.5584-2.1247,4.1534-5.51,5.7844-7.5473L85.12,133.2758a7.7981,7.7981,0,0,1,6.5773-3.1578l23.4212-.0161,15.476-10.5176a61.7522,61.7522,0,0,0,6.08-4.8781l1.7742-1.67h-2.3978a1.6263,1.6263,0,0,1-1.6228-2.1347l2.104-7.57a2.5881,2.5881,0,0,1,2.3908-1.8168h4.6489l1.349-8.18-7.1568-4.7713a11.3578,11.3578,0,0,1-3.9856-5.3243,11.43,11.43,0,0,1-10.4-11.3686c0-8.0646,2.2346-11.42,7.6929-11.5161l-1.3214-5.16a1.8756,1.8756,0,0,1,1.8659-2.4043H168.688a1.8754,1.8754,0,0,1,1.8663,2.4039l-1.3206,5.1607c5.4368.1072,7.6637,3.4657,7.6637,11.5153A11.43,11.43,0,0,1,166.498,83.2377a11.3611,11.3611,0,0,1-3.986,5.3247l-7.13,4.7537,1.3521,8.1982h5.4188a2.589,2.589,0,0,1,2.3912,1.8168l2.104,7.57a1.6268,1.6268,0,0,1-1.6228,2.135H161.827l1.7741,1.67a61.6584,61.6584,0,0,0,6.0812,4.8781l15.4752,10.5176,23.8339.0312c2.91,0,4.4265,1.3006,5.8888,3.1277l10.0829,12.5967c1.63,2.0345,4.2245,5.42,5.784,7.5461l6.8331,9.3169A8.3625,8.3625,0,0,1,239.112,168.9791Z"/><path class="a0368fe8-091f-4751-9a38-028e00037054" d="M172.4145,71.87c0-7.0373-1.523-7.0373-3.4511-7.0373-.3357,0-.6974.0126-1.073.028-.0526.0722-.109.1413-.1685.2081V78.4311A6.9458,6.9458,0,0,0,172.4145,71.87Z"/></g></g></svg>