<svg xmlns="http://www.w3.org/2000/svg" viewBox="0 0 250 137.171"><g id="bfe3a329-717b-4872-b96d-55bff7970f4b" data-name="Layer 2"><g id="a784dcc9-ca6a-4801-8281-7b2395ac9d2c" data-name="Layer 1"><path d="M188.1437,137.171c-.0281-.3018-.0807-.6035-.0808-.9053q-.006-22.5581-.0035-45.1162v-.902c.35-.0159.6415-.0407.9332-.0408q11.2441-.0031,22.4884-.0007a6.1033,6.1033,0,0,1,6.3253,6.3613c.0016,6.909-.0342,13.8182.0178,20.7267a6.282,6.282,0,0,1-3.4677,6.14c.4,1.5637.8009,3.1384,1.2061,4.712q1.0674,4.1454,2.1354,8.2905a6.9356,6.9356,0,0,1,.1089.7341H207.1414q-1.0613-4.1832-2.124-8.366c-.4081-1.5976-.829-3.1919-1.231-4.7373h-5.3928v1.0447q0,5.535-.0037,11.07c-.0006.3295-.0526.659-.0807.9885Zm19.3-37.4737H198.472v14.8408h8.9718Z"/><path d="M24.33,137.171c.0091-.2763.0261-.5526.0262-.8289q.002-22.5546.0011-45.1092V90.205h.932q11.3673,0,22.7347.0006a6.0671,6.0671,0,0,1,6.3711,6.2321q.0735,11.11.0023,22.2215a6.0389,6.0389,0,0,1-6.399,6.2715q-6.1209.0014-12.2418,0H34.6624v12.24ZM43.9822,99.6733h-9.228v15.8018h9.228Z"/><path d="M89.3225,137.171q2.3522-11.0527,4.7057-22.1052,2.552-11.9454,5.12-23.8874c.0638-.2978.1348-.594.2116-.9309h15.4346q.922,4.5589,1.8421,9.11,3.7119,18.4542,7.4174,36.91c.0593.2957.0665.602.0979.9034H113.82q-.0868-.49-.1736-.98-.6819-3.8451-1.367-7.69c-.0661-.3674-.0685-.7528-.6571-.7483-3.1915.0241-6.3833.0027-9.5746.0333a.7832.7832,0,0,0-.5687.4842c-.5754,2.9625-1.1118,5.9327-1.6573,8.901Zm17.9214-37.5548-.4143.0286q-1.7634,9.3138-3.53,18.6454h7.2231C109.4216,112.0191,108.3328,105.8177,107.2439,99.6162Z"/><path d="M226.9724,137.171a17.3915,17.3915,0,0,1-2.3852-1.0745,5.7466,5.7466,0,0,1-2.7376-4.8745c-.0694-2.051-.0277-4.1064.0008-6.1594.0033-.2381.1933-.6434.3651-.6843,3.26-.7761,6.5293-1.509,9.9216-2.2792v5.5521h7.5v-3.723c0-1.1655-.025-2.3317.0118-3.496a.8247.8247,0,0,0-.608-.9139c-4.4457-1.8655-8.88-3.7571-13.32-5.6375a6.0359,6.0359,0,0,1-3.887-5.846q-.0043-5.7438,0-11.4878a6.1188,6.1188,0,0,1,6.3532-6.3413q7.7465-.004,15.4929,0A6.0724,6.0724,0,0,1,249.97,96.5c0,2.1077,0,4.2154,0,6.41l-10.3062,2.3493v-5.58h-7.497v2.4716c0,1.0822.0339,2.1659-.014,3.246a.9154.9154,0,0,0,.6791,1.035c4.2954,1.7947,8.5543,3.6784,12.87,5.4216a6.4717,6.4717,0,0,1,4.2956,6.429c-.1091,4.1594-.0275,8.3237-.0277,12.486a6.0462,6.0462,0,0,1-4.8885,6.2553,1.3029,1.3029,0,0,0-.2775.1474Z"/><path d="M157.9808,137.171c-.0282-.3019-.0808-.6037-.0809-.9056q-.006-22.5646-.0035-45.1294v-.8754H183.39v9.3156H168.3406v9.4094h11.2938c-.69,3.0491-1.3416,5.9956-2.05,8.9286-.05.2062-.513.441-.7871.4448-2.4989.0342-4.9986.02-7.498.02h-.9558v9.3042h15.134v9.4876Z"/><path d="M131.9839,137.171c0-4.9126.0067-9.8252-.0111-14.7378a3.88,3.88,0,0,0-.2546-1.3656q-5.799-14.8653-11.6275-29.719c-.1392-.3556-.2743-.7127-.43-1.1181h11.0826q3.142,9.621,6.2956,19.2772l.1984.0213q3.1188-9.6506,6.2359-19.2961H154.55c-.3968,1.0345-.7639,2.0106-1.1445,2.9814q-5.4145,13.8113-10.82,27.6262a5.0613,5.0613,0,0,0-.337,1.7692c-.0273,4.524-.0132,9.0483-.0186,13.5724,0,.33-.0526.6593-.0807.9889Z"/><path d="M58.66,137.171c-.0093-.3048-.0267-.61-.0267-.9145q-.002-22.5526-.0012-45.1055v-.8858H68.9494v37.4179H87.5253L85.49,137.171Z"/><path d="M0,120.1833q9.9512-.008,19.9023-.014a.9817.9817,0,0,1,.208.06v4.4038H9.6914l-.0438.1437c.2229.119.4386.2546.67.3544,1.6792.7251,3.338,1.507,5.053,2.1356.8376.307.7466.85.7812,1.4871a1.1123,1.1123,0,0,1-.8181,1.2935c-1.9519.7695-3.8649,1.6376-5.7752,2.5911H20.1642v4.5329H0v-4.83q4.6448-1.8,9.288-3.605c.04-.0155.0569-.09.0989-.1609-1.7068-.6693-3.4033-1.35-5.1115-2-1.418-.5395-2.85-1.043-4.2754-1.5625Z"/><path d="M0,92.037a3.24,3.24,0,0,1,3.4616-1.85,34.3029,34.3029,0,0,0,3.7453.008A2.9342,2.9342,0,0,1,10.072,91.7c.7593-1.3535,1.9664-1.567,3.3334-1.5079,1.3575.0587,2.72-.0012,4.0794.017a2.5476,2.5476,0,0,1,2.65,2.3615c.0616,3.4911.0207,6.984.0207,10.6249H0Zm7.9965,2.7372H4.1013V98.61H7.9965Zm8.081-.0169h-3.886v3.91c1.1805,0,2.3094.02,3.4358-.0236.1564-.0061.4234-.3265.43-.5091C16.0979,97.0319,16.0775,95.9264,16.0775,94.7573Z"/><path d="M0,112.1891l14.9851-.0278c.3268-.0006.6535,0,1.0723,0V106.06h4.0653v10.6254H0Z"/><path d="M99.8212,137.171c.5455-2.9683,1.0819-5.9385,1.6573-8.901a.7832.7832,0,0,1,.5687-.4842c3.1913-.0306,6.3831-.0092,9.5746-.0333.5886-.0045.591.3809.6571.7483q.6906,3.8436,1.367,7.69.0869.49.1736.98Z" style="fill:#fff"/><path d="M198.3092,137.171c.0281-.3295.08-.659.0807-.9885q.0087-5.535.0037-11.07v-1.0447h5.3928c.402,1.5454.8229,3.14,1.231,4.7373q1.0683,4.1814,2.124,8.366Z" style="fill:#fff"/><path d="M0,125.0131c1.4257.52,2.8574,1.023,4.2754,1.5625,1.7082.65,3.4047,1.33,5.1115,2-.042.071-.059.1454-.0989.1609Q4.6457,130.543,0,132.3411Z" style="fill:#fff"/><path d="M104.8213,40.2763,125.154,60.5969l9.3023-9.301v.8586c0,6.2169-.0073,12.4338.012,18.6506a1.7628,1.7628,0,0,1-.5741,1.38c-2.9559,2.9293-5.889,5.8817-8.7494,8.7469L84.3757,40.2859,125.02,0c13.4289,13.3177,27.0021,26.7787,40.55,40.2144L145.1918,60.356l.0959.1919V59.67c0-6.1058-.01-12.2117.0141-18.3175a2.027,2.027,0,0,0-.6488-1.6016q-4.6843-4.62-9.3173-9.2926-4.8233-4.8337-9.6317-9.6822a6.2205,6.2205,0,0,1-.5017-.632Z"/><path d="M207.4438,99.6973v14.8408H198.472V99.6973Z" style="fill:#fff"/><path d="M43.9822,99.6733v15.8018h-9.228V99.6733Z" style="fill:#fff"/><path d="M107.2439,99.6162c1.0889,6.2015,2.1777,12.4029,3.2787,18.674H103.3q1.7685-9.3406,3.53-18.6454Z" style="fill:#fff"/><path d="M7.9965,94.7742V98.61H4.1013v-3.836Z" style="fill:#fff"/><path d="M16.0775,94.7573c0,1.1691.02,2.2746-.02,3.3778-.0067.1826-.2737.503-.43.5091-1.1264.0441-2.2553.0236-3.4358.0236v-3.91Z" style="fill:#fff"/></g></g></svg>