<svg xmlns="http://www.w3.org/2000/svg" viewBox="0 0 162.0769 88.929"><g id="a4ad063b-6a96-416f-86fc-bc5ec603aa3a" data-name="Layer 2"><g id="bee8a922-f84a-4ebc-a0b7-955e461ff158" data-name="Layer 1"><path d="M121.975,88.929c-.0182-.1956-.0523-.3913-.0524-.5869q-.0039-14.6246-.0023-29.2492v-.5848c.2269-.01.416-.0263.605-.0264q7.29-.0021,14.5794,0a3.9569,3.9569,0,0,1,4.1008,4.1241c.001,4.4792-.0222,8.9584.0115,13.4373a4.0726,4.0726,0,0,1-2.2481,3.9809c.2594,1.0137.5192,2.0346.7819,3.0548q.6919,2.6874,1.3844,5.3748a4.4762,4.4762,0,0,1,.0706.4759h-6.9144q-.6882-2.712-1.377-5.4238c-.2646-1.0357-.5375-2.0692-.7981-3.0712H128.62v.6773q0,3.5885-.0024,7.1769c0,.2136-.0341.4272-.0523.6408Zm12.5124-24.2945h-5.8165V74.256h5.8165Z"/><path d="M15.7736,88.929c.0059-.1791.0169-.3583.017-.5374q.0012-14.6223.0007-29.2446v-.6664h.6042q7.37,0,14.7391,0a3.9332,3.9332,0,0,1,4.13,4.04q.0477,7.203.0015,14.4064a3.915,3.915,0,0,1-4.1485,4.0658q-3.9682.0009-7.9365,0h-.71V88.929Zm12.74-24.31H22.5314V74.8634H28.514Z"/><path d="M57.9084,88.929q1.5251-7.1656,3.0508-14.331,1.6545-7.7442,3.3191-15.4863c.0414-.1931.0875-.3852.1372-.6036H74.4219q.5978,2.9558,1.1942,5.9064,2.4064,11.964,4.8088,23.9288c.0385.1918.0431.39.0635.5857H73.79q-.0563-.3178-.1125-.6356-.442-2.4929-.8863-4.9853c-.0428-.2383-.0443-.4881-.4259-.4852-2.0691.0156-4.1383.0018-6.2073.0216a.5077.5077,0,0,0-.3687.3139c-.373,1.9207-.7208,3.8462-1.0745,5.7706ZM69.5271,64.5819l-.2687.0186L66.97,76.6884h4.6828C70.9388,72.6229,70.2329,68.6024,69.5271,64.5819Z"/><path d="M147.1479,88.929a11.2794,11.2794,0,0,1-1.5463-.6966,3.7255,3.7255,0,0,1-1.7748-3.16c-.045-1.33-.018-2.6622.0005-3.9932.0022-.1543.1253-.4171.2367-.4436,2.1132-.5032,4.233-.9783,6.4323-1.4777v3.5995h4.8625V80.3436c0-.7556-.0162-1.5117.0076-2.2665a.5347.5347,0,0,0-.3941-.5925c-2.8822-1.2094-5.7572-2.4357-8.6354-3.6548a3.9132,3.9132,0,0,1-2.52-3.79q-.0028-3.7238,0-7.4476a3.9668,3.9668,0,0,1,4.1188-4.1111q5.0222-.0027,10.0442,0a3.9366,3.9366,0,0,1,4.0772,4.08c0,1.3664,0,2.7329,0,4.1557L155.3755,68.24V64.6227h-4.86v1.6024c0,.7016.022,1.4042-.0091,2.1044a.5935.5935,0,0,0,.44.671c2.7847,1.1635,5.5458,2.3847,8.3438,3.5148a4.1957,4.1957,0,0,1,2.7849,4.168c-.0708,2.6966-.0179,5.3964-.018,8.0948a3.92,3.92,0,0,1-3.1692,4.0553.8437.8437,0,0,0-.18.0956Z"/><path d="M102.42,88.929c-.0182-.1957-.0523-.3914-.0524-.5871q-.0039-14.6289-.0022-29.2577v-.5675H118.893V64.556h-9.7565v6.1h7.3219c-.4471,1.9767-.87,3.887-1.329,5.7885-.0323.1337-.3326.2859-.51.2883-1.62.0222-3.2406.0131-4.861.0131h-.62v6.032H118.95V88.929Z"/><path d="M85.5662,88.929c0-3.1849.0043-6.37-.0072-9.5546a2.5144,2.5144,0,0,0-.1651-.8853q-3.76-9.6373-7.5382-19.2671c-.09-.23-.1778-.4621-.2789-.7249h7.1849q2.037,6.2374,4.0815,12.4975l.1287.0139,4.0427-12.51h7.1813c-.2572.6707-.4952,1.3035-.7419,1.9329q-3.51,8.9538-7.0146,17.91a3.2843,3.2843,0,0,0-.2185,1.147c-.0177,2.933-.0085,5.8661-.012,8.7991,0,.2137-.0342.4274-.0524.6411Z"/><path d="M38.0294,88.929c-.006-.1976-.0173-.3952-.0173-.5928q-.0013-14.6213-.0008-29.2423V58.52H44.7V82.7779H56.7433l-1.32,6.1511Z"/><path d="M0,77.9157q6.4514-.0051,12.9028-.0091a.6461.6461,0,0,1,.1349.0387V80.8H6.283l-.0284.0932c.1445.0772.2844.1651.4343.23,1.0886.47,2.164.977,3.2758,1.3845.5431.199.4841.5507.5065.9641a.721.721,0,0,1-.53.8385c-1.2655.4989-2.5057,1.0617-3.7442,1.68h6.8759V88.929H0V85.7978q3.0112-1.1673,6.0215-2.3372c.0258-.01.0369-.0583.0641-.1043-1.1066-.4339-2.2064-.8751-3.3138-1.2964C1.8525,81.71.9243,81.3837,0,81.047Z"/><path d="M0,59.6683a2.1,2.1,0,0,1,2.2442-1.2,22.1959,22.1959,0,0,0,2.4281.0052A1.9023,1.9023,0,0,1,6.53,59.45a2.0683,2.0683,0,0,1,2.1611-.9776c.88.038,1.7632-.0008,2.6447.011a1.6517,1.6517,0,0,1,1.7178,1.531c.04,2.2633.0134,4.5278.0134,6.8882H0Zm5.1842,1.7745H2.6589V63.93H5.1842Zm5.239-.0109H7.9038v2.5352c.7654,0,1.4972.0133,2.2275-.0153.1014-.004.2745-.2117.2788-.33C10.4364,62.9065,10.4232,62.19,10.4232,61.4319Z"/><path d="M0,72.733l9.715-.018c.2118,0,.4236,0,.6951,0V68.76h2.6356v6.8885H0Z"/><path d="M67.9564,26.1114l13.1819,13.174,6.0307-6.03v.5566c0,4.03-.0047,8.0609.0078,12.0913a1.1426,1.1426,0,0,1-.3722.8945c-1.9163,1.8991-3.8178,3.8132-5.6723,5.6707L54.7014,26.1176,81.0512,0,107.34,26.0713l-13.211,13.058.0622.1244v-.5692c0-3.9585-.0063-7.917.0092-11.8754a1.314,1.314,0,0,0-.4207-1.0383q-3.0367-2.9955-6.04-6.0245-3.1269-3.1338-6.2443-6.277a4.053,4.053,0,0,1-.3253-.41Z"/></g></g></svg>