<svg xmlns="http://www.w3.org/2000/svg" viewBox="0 0 155.1929 137"><g id="a82d9537-41bd-4ef2-8479-cfedcdcda6e8" data-name="Layer 2"><g id="ebc20bda-c30e-469e-a56b-8f4fc8376b52" data-name="Layer 1"><path d="M0,131.66c.2492-2.2091.5753-4.4128.7333-6.6284C1.22,118.21,1.7,111.3861,2.0471,104.5565c.0835-1.6417.63-2.1164,2.2029-2.0259a50.7945,50.7945,0,0,0,6.3719-.0068c1.4651-.1,2.0486.4713,2.4191,1.8,1.8347,6.5761,3.742,13.1321,5.6284,19.6938.1085.3774.2583.7428.3192.9159,1.9821-6.8553,4.0242-13.8,5.9724-20.77.3356-1.2008.8046-1.6778,2.0943-1.6322,2.7934.0988,5.5927.03,8.6069.03.8053,11.257,1.598,22.3375,2.4008,33.5588h-7.75l-.9476-24.1635c-2.4493,8.2588-4.81,16.2183-7.143,24.0858a5.591,5.591,0,0,1-.82.1873c-5.46.1834-5.5176.2-7.1122-5.06-1.7232-5.6845-3.3231-11.4063-4.9822-17.11a2.4475,2.4475,0,0,0-.7284-1.24l-1.0113,23.36H0Z"/><path d="M78.1716,137c-2.2219-.576-4.4519-1.1232-6.6609-1.7447a17.5927,17.5927,0,0,1-2.2187-.9829c.5728-1.9405,1.1259-3.8143,1.7283-5.8554a38.2373,38.2373,0,0,0,5.0479,1.64,30.3161,30.3161,0,0,0,5.8913.4131,3.1933,3.1933,0,0,0,3.436-2.6594c.3008-1.8575-.9916-2.8944-2.504-3.559-1.4355-.6308-2.9522-1.0744-4.4133-1.65a48.7589,48.7589,0,0,1-4.5249-1.9143,9.5624,9.5624,0,0,1,.8121-17.4464c5.4545-2.1144,10.882-1.6081,16.1616.6977a1.9485,1.9485,0,0,1,.7177,1.7c-.3142,1.5262-.8871,2.9992-1.4157,4.6728a25.56,25.56,0,0,0-3.8178-1.34,30.4251,30.4251,0,0,0-6.062-.6416,3.1555,3.1555,0,0,0-3.3076,2.8055c-.2426,1.8146.93,2.7566,2.4524,3.3272,2.558.9584,5.192,1.7389,7.6856,2.8392,5.43,2.3958,7.7316,6.9657,6.1759,12.0609-1.34,4.3888-4.7522,6.2829-8.94,7.1825-.5785.1243-1.1456.3021-1.718.4551Z"/><path d="M53.5711,38.73l-2.807-.5563c-.12.168-.1949.2244-.1939.2795.1524,8.873.01,17.7657.5944,26.6105.2946,4.4578,2.8111,8.361,6.0177,11.868a16.7474,16.7474,0,0,0,7.8522-9.3136,24.69,24.69,0,0,0,.2359-16.724c-1.4634-4.1079.0887-7.1043,2.0193-10.5826,5.1219,6.5686,6.1556,13.9178,5.6116,21.6766-.5554,7.9217-3.7326,14.4833-10.17,19.33,6.9165,5.5888,21.1376,6.2684,29.7065.0754-7.7774-5.874-10.5519-13.954-10.3671-23.3386.1252-6.3626,1.49-12.3061,5.5258-17.4629a10.0052,10.0052,0,0,1,2.3264,9.7273c-2.2019,8.1977-2.1695,16.1516,3.6307,23.0957A35.854,35.854,0,0,0,97.76,77.1061c3.8742-4.2343,6.3236-8.9473,6.61-14.31.4259-7.9852.2283-16.0036.2841-24.008a2.1488,2.1488,0,0,0-.2482-.6369l-2.8636.57-3.3244-6.09L110.9493,30.7a12.3069,12.3069,0,0,1,.33,1.7981c-.0308,9.65.1655,19.3076-.18,28.9463-.5721,15.9642-13.4768,29.2508-29.4537,30.7485-15.0853,1.4142-28.28-5.5888-34.5266-18.3243a32.4772,32.4772,0,0,1-3.2866-14.2731c-.0554-8.9668-.0186-17.9342-.01-26.9013,0-.4656.0938-.931.1612-1.5575a30.8063,30.8063,0,0,1,12.6849,1.9068Z"/><path d="M96.0984,72.0414c-1.0684-1.7169-1.9214-2.95-2.6293-4.26a6.309,6.309,0,0,1-.3991-5.0965,32.4585,32.4585,0,0,0,.1315-18.0276c-2.1216-7.6986-8.5162-12.5975-15.88-12.4578-7.429.141-13.5814,5.1715-15.5488,12.8987a31.6618,31.6618,0,0,0,.116,17.0375c.9085,3.0355.1313,5.2978-1.3869,7.6472-.4044.6257-.8952,1.1958-1.4967,1.99a22.9721,22.9721,0,0,1-4.0084-9.8612c-1.3208-7.3177-1.2691-14.588,1.4263-21.6238a22.4531,22.4531,0,0,1,21.0517-14.68A22.1435,22.1435,0,0,1,98.51,39.97a37.9054,37.9054,0,0,1-.5322,28.606C97.5442,69.6284,96.8926,70.5914,96.0984,72.0414Z"/><path d="M155.1929,136.2437c-2.7719,0-5.2338.0606-7.6878-.0512a1.9966,1.9966,0,0,1-1.3761-1.099c-.6141-1.5132-.9367-3.147-1.5835-4.643a2.3553,2.3553,0,0,0-1.6259-1.2626c-2.87-.129-5.753-.1277-8.6239-.0035a2.6237,2.6237,0,0,0-1.704,1.2032,10.7555,10.7555,0,0,0-.8611,2.5075c-1.0663,3.3519-1.0657,3.3521-4.6681,3.3521H122.09c.7447-2.063,1.4068-3.9088,2.0769-5.7518,3.1743-8.73,6.38-17.4485,9.4952-26.1991.4634-1.3016,1.0342-1.87,2.4711-1.7666,2.2454.1621,5.06-.6777,6.6028.39,1.527,1.0572,1.8153,3.939,2.5811,6.0443C148.58,117.9366,151.8191,126.9176,155.1929,136.2437Zm-16.7793-24.8006c-1.2036,3.8911-2.37,7.6616-3.5625,11.5169h7.3132c-1.13-3.75-2.2062-7.3325-3.2968-10.91C138.8132,111.8714,138.6341,111.7311,138.4136,111.4431Z"/><path d="M99.0667,102.8663c5.31,0,10.4626-.32,15.558.0826,6.1028.4824,9.793,4.4312,9.9635,9.7942.1742,5.4794-3.495,9.9532-9.3276,11.0526-2.5316.4772-5.1466.513-8.0256.7769v11.5809H99.0667Zm8.2034,15.1306c2.9528.1374,5.9862.6568,8.062-2.1068a4.1956,4.1956,0,0,0-.0592-5.1631c-1.2536-1.8008-4.9081-2.5239-8.0028-1.6395Z"/><path d="M52.0082,129.2061H65.2121v6.9113H43.9505V102.6662h8.0577Z"/><path d="M77.5526,0c5.5262-.001,9.2505,3.7868,9.1875,9.3441-.0713,6.284-4.0637,11.1965-9.099,11.1956-5.1512-.0009-9.3261-5.1367-9.3394-11.489C68.2905,3.6759,72.0467.001,77.5526,0Z"/><path d="M59.4619,17.2142A10.8363,10.8363,0,0,1,57.102,24.3c-4.0295,4.7317-10.9935,3.3254-13.2944-2.6869-1.5307-4-.816-8.5139,1.692-10.6865a9.14,9.14,0,0,1,10.0081-.9725C58.4638,11.5109,59.4673,14.1149,59.4619,17.2142Z"/><path d="M112.15,17.59a31.6252,31.6252,0,0,1-.67,3.3968c-1.1386,3.6865-4.4922,6.3443-7.7614,6.2505a8.4309,8.4309,0,0,1-7.4869-6.3157c-.9525-3.3266-1.172-6.6848,1.4043-9.4523,2.3567-2.5314,5.3923-3.0631,8.6722-2.22C110.163,10.2406,112.2787,13.35,112.15,17.59Z"/></g></g></svg>