<svg xmlns="http://www.w3.org/2000/svg" viewBox="0 0 113.549 137"><g id="a7a7deea-af54-4aea-be2f-c9c1b03659c7" data-name="Layer 2"><g id="b8c2410f-718d-4aff-8cc6-e1441220037a" data-name="Layer 1"><rect x="18.2217" width="70.8961" height="70.5346"/><path d="M83.4641,23.0163l-.8178.9906-1.0084-.8011a6.0606,6.0606,0,0,0-4.5-1.18,4.6855,4.6855,0,0,0-2.1481,1.182L82.4276,28.22l-1.4611,2.1678L73.3579,25.261c-.028.0457-.0567.0859-.0837.13a59.1109,59.1109,0,0,0,7.0518,6.1425l-1.4349,2.1866A34.8421,34.8421,0,0,1,75.37,30.9363a10.5177,10.5177,0,0,1-3.641,1.6375l-.8972.1992-.4909-.7743C66.95,26.6542,68.8573,18.52,68.9381,18.1777l2.5436.61a24.31,24.31,0,0,0-.5349,5.0334c0,.1044.0039.2074.0064.3141,1.5171-2.6121,3.4149-4.19,5.6534-4.668a8.071,8.071,0,0,1,5.4974.9517,8.3421,8.3421,0,0,0,1.5153-4.6507c0-4.532-3.8406-8.0528-4.3177-8.4765a10.4891,10.4891,0,0,0-8.15-1.8573c-3.9282.8706-6.6679,4.1622-7.6537,5.5184a35.3981,35.3981,0,0,1,4.3964,11.219l-2.5829.4092a33.1544,33.1544,0,0,0-4.4677-10.998L60.4181,10.9l.4169-.688c.1481-.244,3.6917-5.9738,9.7286-7.3243,3.3788-.7591,6.8231.0048,10.2405,2.2613l.0663.0433.0614.0519C84.4218,8.2257,89.441,15.7776,83.4641,23.0163Z" style="fill:#fff"/><path d="M67.7106,47.8777l.8865-2.9108c.9127.7028,4.3528,3.1792,5.0833,4.3254l-1.2863,2.6356A41.1712,41.1712,0,0,0,67.7106,47.8777Z" style="fill:#fff"/><path d="M68.585,62.8708l-.034.034-.0369.03c-.968.8595-3.6411,1.3383-10.6744-5.143-6.9372-6.39-12.13-13.0308-12.9195-16.5232-.7837-3.4723.7628-9.29,2.6145-13.0028l2.34,1.1679a24.5,24.5,0,0,0-2.5486,9.7343,7.047,7.047,0,0,0,.1439,1.5244c.5657,2.5093,4.9179,8.5263,12.1422,15.1784,4.8211,4.4443,6.832,4.8854,7.3293,4.9225,7.6774-7.9913,9.6737-14.5437,9.6737-19.164a12.8567,12.8567,0,0,0-2.2076-7.6212L76.452,32.38C76.8536,32.8836,86.0839,44.8774,68.585,62.8708Z" style="fill:#fff"/><path d="M61.573,69.1011c-6.0256-9.7437-21.3491-16.1295-21.5086-16.2l1.0609-2.39c.6852.3036,17.6382,8.143,24.0895,18.5788Z" style="fill:#fff"/><path d="M52.5547,34.62c-2.4675-3.2272-.07-5.4746-.07-5.4746,7.1421-.3463,12.35,6.7365,12.35,6.7365A10.6021,10.6021,0,0,1,66.141,48.0035s-4.9491-1.9927-8.7465-3.5108c-3.7956-1.52-4.3656-2.6584-4.1231-5.4008A8.3383,8.3383,0,0,0,52.5547,34.62Z" style="fill:#fff"/><path d="M20.43,11.3439l-1.0042-2.411c.8573-.3591,21.1835-8.6788,34.5453-.4507,6.497,3.9991,10.1629,11.1957,10.8973,21.3946l-2.6081.1874c-.67-9.3074-3.9161-15.82-9.6518-19.3546C40.391,3.1822,20.6276,11.2631,20.43,11.3439Z" style="fill:#fff"/><path d="M38.4928,29.1029A77.8565,77.8565,0,0,1,30.88,43.9535l-.0007.0027L28.6683,42.56a75.51,75.51,0,0,0,7.3809-14.3836c.4507-1.1849.8494-2.833.2011-3.94a3.8838,3.8838,0,0,0-2.31-1.36L35.55,20.6205a4.0941,4.0941,0,0,1,2.9311,2.2565C39.4458,24.4852,39.4494,26.579,38.4928,29.1029Z" style="fill:#fff"/><path d="M32.2091,69.173c-2.3978-1.3985-5.6782-5.4945-6.1771-6.0767-5.5191-7.2-.92-15.0116,1.8434-19.3161l2.2306,1.47c-2.6677,4.153-6.4436,10.4626-2.05,16.1993,1.2347,1.426,6.7024,6.65,8.4153,7.6483Z" style="fill:#fff"/><path d="M20.8785,26.1409l-1.3859-2.2152a17.1026,17.1026,0,0,0,2.15-2.2826c4.3369-4.291,8.6623-1.482,10.0367-3.5874,1.4164-2.17.4184-6.4725-.1528-7.9954l2.4453-.9222c.2648.6958,2.4889,6.9032-.2024,10.4858-1.2931,1.7207-3.6476,2.2838-6.2262,2.01a5.3813,5.3813,0,0,0-3.832,1.6048A17.6144,17.6144,0,0,1,20.8785,26.1409Z" style="fill:#fff"/><path d="M71.1049,26.6848a15.1138,15.1138,0,0,0,.9741,3.043,8.7794,8.7794,0,0,0,1.308-.6111C72.5072,28.2886,71.5845,27.16,71.1049,26.6848Z"/><path d="M8.526,80.216l4.0074,15.0907c.9377,3.5819,3.1546,13.0454,3.7513,16.455h.1708c-.3408-3.1547-.7675-16.37-.7675-19.3534V80.216h8.3558V137H15.1759l-3.7514-14.1542c-.9369-3.41-2.9838-12.62-3.5807-15.9445h-.17c.3408,2.9846.6818,15.9445.6818,18.7576L8.4407,137H0V80.216Z"/><path d="M37.1675,88.23v15.8581h6.5642v8.1006H37.1675V137H28.3007V80.216H46.1193V88.23Z"/><path d="M66.8336,137h-17.99V80.216h8.8666v48.5983h9.1229Z"/><path d="M81.6658,114.9182H78.51V137H69.6449V80.216H81.6658c4.5195,0,9.1226,2.643,9.1226,10.2307v14.3239C90.7884,112.2735,86.1853,114.9182,81.6658,114.9182Zm.681-24.2167c0-1.7046-.5108-2.3866-1.5338-2.3866H78.51v19.1837H80.813c1.023,0,1.5338-.6824,1.5338-2.387Z"/><path d="M99.1382,127.2784,98.03,137H90.1007l7.5874-56.784H105.96L113.549,137h-8.6983l-.8514-9.7216Zm4.0937-8.1-1.3661-15.7723-1.7883,15.7723Z"/></g></g></svg>