<svg xmlns="http://www.w3.org/2000/svg" viewBox="0 0 78.326 137"><g id="ffa6681a-8f7f-479b-be61-78932dba043e" data-name="Layer 2"><g id="e7485868-df34-4218-bb77-893aa34b0cc2" data-name="Layer 1"><path d="M0,69.4112c.0367-1.4071.052-3.1389.1342-4.8675a58.5412,58.5412,0,0,1,.6769-6.8276,11.8574,11.8574,0,0,1,.5955-1.9626,2.5846,2.5846,0,0,1,.4389-.7314.6912.6912,0,0,1,1.2161-.013,2.9136,2.9136,0,0,1,.4676.7642,19.0771,19.0771,0,0,1,.6892,1.9817A100.42,100.42,0,0,0,8.3359,70.1609a62.313,62.313,0,0,0,8.1813,14.3935c.2975.3848.5947.7708.9121,1.139a4.0283,4.0283,0,0,1,.8615,1.7046q1.3266,5.3739,3.0918,10.6207A106.9231,106.9231,0,0,0,29.621,116.761a80.5066,80.5066,0,0,0,7.0946,10.5213,3.153,3.153,0,0,0,3.43,1.0467,2.8121,2.8121,0,0,0,1.4524-1.0155q1.9893-2.4785,3.7647-5.1139a94.5075,94.5075,0,0,0,9.2514-17.7783,131.2192,131.2192,0,0,0,5.4211-16.9381,4.5379,4.5379,0,0,1,.9066-1.8221A59.5249,59.5249,0,0,0,69.23,71.9757a94.2979,94.2979,0,0,0,4.8149-13.93c.1887-.7024.4281-1.3932.682-2.0752a3.6645,3.6645,0,0,1,.5011-.8937c.4249-.5694.9057-.57,1.3214.0124a5.4216,5.4216,0,0,1,.558,1.0572,9.7951,9.7951,0,0,1,.5893,2.5841,82.811,82.811,0,0,1,.5874,12.9775q-.1194,3.99-.5569,7.96a89.021,89.021,0,0,1-2.6,13.7662A74.8162,74.8162,0,0,1,64.64,116.337,66.57,66.57,0,0,1,44.2278,135.61a10.1614,10.1614,0,0,1-8.3814.8549,7.104,7.104,0,0,1-1.1658-.5376,65.8086,65.8086,0,0,1-12.6454-9.6819A69.5438,69.5438,0,0,1,6.1314,102.1342a82.5535,82.5535,0,0,1-4.48-15.5083C1.14,83.9119.7405,81.1815.49,78.4324.32,76.567.22,74.6948.1128,72.8242.0537,71.7963.0429,70.7655,0,69.4112Z"/><path d="M30.8463,22.3367A6.1582,6.1582,0,0,0,31.485,25.68c.35.7677.7069,1.5321,1.0486,2.3034a1.3937,1.3937,0,0,1,.12.9589,1.327,1.327,0,0,1-1.1143,1.0525c-.7755.1282-1.5568.2218-2.3358.3282a69.8362,69.8362,0,0,0-12.7163,2.9767,57.0674,57.0674,0,0,0-6.5222,2.622,6.3163,6.3163,0,0,1-1.3324.4561c-.6051.1357-.9314-.2042-.8447-.8255a5.2811,5.2811,0,0,1,.5628-1.6135c1.65-3.3172,3.3526-6.6068,5.21-9.814A80.176,80.176,0,0,1,20.6619,13.658,52.644,52.644,0,0,1,34.6,1.5092,12.5439,12.5439,0,0,1,37.0388.3585,6.5225,6.5225,0,0,1,41.2906.3539,12.358,12.358,0,0,1,43.6932,1.48a52.4344,52.4344,0,0,1,13.68,11.8,79.0234,79.0234,0,0,1,7.3608,10.7551c1.8893,3.255,3.6222,6.5935,5.2856,9.9682a12.1394,12.1394,0,0,1,.5014,1.3643,1.0344,1.0344,0,0,1,.0472.2953c.0226.5332-.2778.8369-.7973.7237a7.8751,7.8751,0,0,1-1.3765-.4581c-.9479-.4008-1.8722-.8579-2.824-1.2486a67.3,67.3,0,0,0-12.2684-3.6587c-2.0191-.4083-4.0552-.7095-6.0993-.9591-.1277-.0156-.2548-.0374-.3813-.0608a1.3668,1.3668,0,0,1-1.0875-1.8046,11.4763,11.4763,0,0,1,.45-1.0665c.308-.6923.637-1.3756.9287-2.0745a5.1667,5.1667,0,0,0,.4142-2.2611c-.032-.657-.0636-1.3142-.0854-1.9716a2.9882,2.9882,0,0,0-.4216-1.4249,9.1653,9.1653,0,0,1-.7546-1.7239,11.0235,11.0235,0,0,0-3.0977-4.67,5.859,5.859,0,0,0-5.0128-1.4482,5.5876,5.5876,0,0,0-3.0906,1.5565,11.2379,11.2379,0,0,0-3.1095,4.9123,4.0038,4.0038,0,0,1-.4031.9424,4.6784,4.6784,0,0,0-.7041,2.5267C30.8438,21.7944,30.8463,22.0949,30.8463,22.3367Z"/><path d="M15.5815,56.1588c-.0585-.728-.1355-1.4391-.1692-2.1522-.1071-2.2715-.1856-4.5443-.3051-6.8151a.8568.8568,0,0,1,.5952-.9471,70.9147,70.9147,0,0,1,11.4251-4.042A54.3391,54.3391,0,0,1,34.067,40.856a40.2311,40.2311,0,0,1,8.9024-.1386A59.1629,59.1629,0,0,1,57.6509,44.216c1.6756.6154,3.309,1.3455,4.961,2.0246.1056.0434.2051.1013.3093.1482a.5573.5573,0,0,1,.3106.6027c-.0239.858-.028,1.7167-.0684,2.5738-.0621,1.3143-.1428,2.6279-.2258,3.9411-.0523.8277-.1227,1.6544-.1871,2.4814a1.3463,1.3463,0,0,1-.05.1952c-.1463-.05-.2781-.0893-.405-.14a75.7387,75.7387,0,0,0-12.4763-3.8605A54.98,54.98,0,0,0,42.2715,51.09a42.9158,42.9158,0,0,0-5.7016-.039A54.9435,54.9435,0,0,0,27.756,52.35a76.7171,76.7171,0,0,0-11.721,3.7c-.1058.0427-.2128.0829-.3208.12A.4861.4861,0,0,1,15.5815,56.1588Zm23.597-14.25c-.1208.2211-.1923.34-.2521.4635-.3038.6306-.6169,1.2572-.9011,1.8965a.57.57,0,0,1-.639.4119c-.6836-.0419-1.3713-.0183-2.0573-.0187-.1068,0-.2135.0163-.4313.0341.8479.689,1.69,1.2146,2.48,1.8413-.2525.9828-.6084,1.9251-.8719,2.9985.22-.12.3443-.1817.4617-.2535.6462-.3948,1.2957-.7845,1.9329-1.1934a.4335.4335,0,0,1,.5413-.0042c.6616.4238,1.3346.83,2.0053,1.2394.0989.06.2091.1023.4081.198l-.894-2.99c.1541-.1146.2673-.2009.3826-.2842.5911-.4264,1.1838-.8506,1.7729-1.28a2.8226,2.8226,0,0,0,.25-.231.761.761,0,0,0-.3809-.076c-.7146.0036-1.4294-.0031-2.1435.0171a.4221.4221,0,0,1-.4586-.2846c-.3035-.6622-.6248-1.3162-.941-1.9725C39.3761,42.2826,39.3019,42.1475,39.1785,41.9091Zm14.2409,5.4466-.0122-.0978c-.3005-.0609-.6-.1268-.9018-.1818-.7739-.1411-.7723-.14-.9671-.9157-.0854-.34-.1806-.6781-.2923-1.0954-.4759.5027-.78,1.0393-1.19,1.4948-.5746-.0269-1.1159-.2743-1.6873-.2828l-.0425.0893,1.2226,1.3305c-.1634.3075-.3108.5687-.4427.8375a2.9164,2.9164,0,0,0-.394.8683,2.2642,2.2642,0,0,0,.243-.0544c.4025-.1454.8112-.2774,1.2031-.4478a.4722.4722,0,0,1,.6008.13c.2694.2753.5592.5309.8445.79.0786.0714.1724.1261.3435.2489l-.1614-1.915C52.3417,47.8366,52.9188,47.6686,53.4194,47.3557Zm-23.356-1.0716a1.99,1.99,0,0,0-.2858.0017c-.3923.0774-.7869.147-1.1739.2457a.4146.4146,0,0,1-.5066-.1907c-.245-.3517-.5086-.6906-.7711-1.03a1.6511,1.6511,0,0,0-.2428-.203c-.133.51-.2656.9612-.3651,1.42-.0618.2849-.1752.4512-.4934.4784a8.0825,8.0825,0,0,0-.9686.1771,2.4969,2.4969,0,0,0-.3243.1145l.0059.0872,1.6029.7445c.0335.6475-.1557,1.2454-.0973,1.9153.1335-.1006.2255-.1594.3051-.2319.3063-.2793.6146-.557.91-.8477a.3685.3685,0,0,1,.4587-.0869c.369.1535.7477.2841,1.1242.4189.1141.0409.2343.0647.4627.1263L28.8089,47.7C29.2036,47.2107,29.6538,46.8182,30.0634,46.2841Zm29.3433,5.5378.0925-.065V50.6332c.3336-.225.742-.2369,1.08-.5405-.292-.0774-.5219-.1484-.7564-.1978a.4253.4253,0,0,1-.3994-.4166,8.8047,8.8047,0,0,0-.19-.9155c-.2336.2622-.4266.4477-.5814.6609a.4562.4562,0,0,1-.6173.1989,4.96,4.96,0,0,0-.6877-.176l-.0565.08.6975.88c-.1188.3966-.4651.66-.546,1.1175.2944-.0836.5447-.1345.7788-.2265a.4873.4873,0,0,1,.6367.159C59.0216,51.46,59.2222,51.6346,59.4067,51.8219Zm-41.611-1.7271c.0384.06.0479.096.069.105q.314.1349.6315.2616c.3955.1569.3932.1556.3707.5907a2.175,2.175,0,0,0,.0223.8247,6.8793,6.8793,0,0,0,.548-.5664.5476.5476,0,0,1,.7412-.1978,5.0975,5.0975,0,0,0,.7055.1938l.0481-.0809-.594-.9968.72-.9011-.0566-.0907a3.9933,3.9933,0,0,0-.5564.1524.5789.5789,0,0,1-.8268-.258,1.8264,1.8264,0,0,0-.2765-.3267,2.1755,2.1755,0,0,0-.2464-.1856l-.248,1.1709Z"/><path d="M41.03,94.017c-.5234.2124-1.0226.425-1.5305.6141a.6661.6661,0,0,1-.4183.016c-.5915-.2069-1.1744-.4385-1.7693-.6647-.0354-.8472-.07-1.6593-.103-2.4714q-.1277-3.15-.2534-6.301-.1428-3.6438-.28-7.2878-.1242-3.172-.255-6.344-.129-3.1719-.2606-6.3437t-.2609-6.3438q-.1173-2.8073-.2376-5.6145c-.0076-.1842-.001-.369-.001-.608a39.72,39.72,0,0,1,6.9932-.0292c0,.581.0152,1.1088-.003,1.6355-.0439,1.2718-.1024,2.5432-.1566,3.8147q-.1529,3.5786-.3065,7.1573c-.0482,1.1574-.0811,2.3154-.1292,3.4728-.0987,2.3716-.2057,4.7428-.3037,7.1145-.0479,1.1574-.0783,2.3155-.1251,3.4729-.0971,2.4-.2021,4.8-.2993,7.2006-.0468,1.1574-.0793,2.3155-.1256,3.4729C41.1508,91.3082,41.09,92.6358,41.03,94.017Z"/><path d="M22.8767,55.2634c1.6791-.54,3.3609-.98,5.11-1.3852.0278.1952.0638.3715.0765.5494.1287,1.8115.2514,3.6235.38,5.4351q.2538,3.5729.5137,7.1454.1712,2.3747.3436,4.7492.291,3.9357.5872,7.8709.2443,3.2724.4882,6.545.1479,2.0109.2846,4.0225c.0077.1105.001.222.001.3766a2.4868,2.4868,0,0,1-.2942-.1423c-.913-.6157-1.8212-1.2386-2.7372-1.85a.6711.6711,0,0,1-.3013-.53c-.2986-2.2531-.6111-4.5042-.9157-6.7565-.27-1.9973-.5324-3.9956-.8034-5.9928s-.55-3.993-.823-5.99Q24.424,66.6559,24.0661,64q-.4093-2.9952-.823-5.99C23.1211,57.1181,23.0048,56.2254,22.8767,55.2634Z"/><path d="M50.3366,53.84c1.76.3765,3.4336.8439,5.1353,1.3583-.0693.5434-.1318,1.0644-.2028,1.5843q-.3224,2.3578-.65,4.7151-.3771,2.74-.7524,5.48-.3624,2.6554-.7208,5.3116-.41,3.0168-.8222,6.0334-.36,2.6559-.715,5.3125c-.1973,1.459-.394,2.9181-.6023,4.3755a.5669.5669,0,0,1-.1892.3543c-.993.7007-1.9969,1.3862-2.9986,2.0746a.4766.4766,0,0,1-.12.0285c0-.21-.0124-.4144.002-.6168q.1641-2.3106.3377-4.6207c.1585-2.11.3229-4.22.48-6.33.0977-1.3119.1843-2.6246.28-3.9367q.1993-2.7165.4053-5.4325c.0633-.8556.1214-1.7116.1833-2.5673q.2075-2.8666.4157-5.7331c.1-1.3979.1926-2.7963.2929-4.1942C50.1706,55.997,50.2522,54.9579,50.3366,53.84Z"/><path d="M15.8432,57.8066,17.5881,57.1l4.354,26.4554a1.6,1.6,0,0,1-.2492-.1676c-.61-.6625-1.2237-1.3224-1.8191-1.9981a1.269,1.269,0,0,1-.2639-.5227c-.8123-3.3472-1.524-6.7164-2.0662-10.1179-.452-2.8357-.8614-5.6786-1.2571-8.5228-.1871-1.3442-.2988-2.699-.4418-4.0493C15.833,58.0657,15.8432,57.9522,15.8432,57.8066Z"/><path d="M56.7739,83.0388c1.35-8.7021,2.6861-17.3194,4.0312-25.9929l1.8678.7537c-.0635.6555-.1112,1.2805-.1866,1.902-.2115,1.745-.41,3.4921-.6593,5.2318-.3,2.0931-.6212,4.1837-.9791,6.2676q-.78,4.5417-1.8472,9.0267a1.8284,1.8284,0,0,1-.4317.8657c-.5253.5657-1.0338,1.147-1.5509,1.7206C56.9637,82.8743,56.8984,82.9249,56.7739,83.0388Z"/><path d="M38.619,36.3423v1.29h-.9564a32.4093,32.4093,0,0,1-.0129-4.578c.1172-.0066.2427-.0216.3679-.0193.6853.0125,1.3734-.0039,2.055.0538a1.3907,1.3907,0,0,1,1.3608,1.1092,1.6577,1.6577,0,0,1-.6505,1.8559,1.6047,1.6047,0,0,0-.1353.1111l.9345,1.4953c-.3911,0-.7012.0143-1.0085-.009a.4028.4028,0,0,1-.2494-.19c-.1795-.292-.3437-.5939-.5025-.898a.3608.3608,0,0,0-.372-.2244C39.1959,36.3511,38.9411,36.3423,38.619,36.3423Zm.0253-.8783a4.14,4.14,0,0,0,1.349-.0456.7078.7078,0,0,0,.517-.75.6872.6872,0,0,0-.5056-.7129,3.9184,3.9184,0,0,0-1.36-.0394Z"/><path d="M62.59,36.5769l.5641,4.99L62.12,41.2659l-.1269-.9741-2.05-.6173c-.1645.2043-.3193.389-.4651.5805a.2776.2776,0,0,1-.3321.1233c-.2561-.0809-.5129-.16-.8294-.258l3.2443-3.8517Zm-.8337,1.0176-.1049-.0389-1.1432,1.4205,1.418.4247Z"/><path d="M18.15,36.0746l.9608-.2859c.0519.1435.1.26.1362.38.2164.7111.4408,1.42.6392,2.1361a4.23,4.23,0,0,1,.1235.8432,1.337,1.337,0,0,1-.0752.4618,2.1564,2.1564,0,0,1-1.9963,1.3726,1.7009,1.7009,0,0,1-1.826-1.0725c-.3528-.9466-.6167-1.9264-.934-2.94l.9923-.3017c.173.5666.3306,1.0834.4886,1.6.1128.369.2082.7445.3431,1.1052a.9622.9622,0,0,0,1.31.6151.9228.9228,0,0,0,.6377-1.1857c-.18-.6767-.3936-1.3442-.5921-2.0159C18.2933,36.5691,18.2305,36.3509,18.15,36.0746Z"/><path d="M30.11,34.0091l-.2419.8691a9.17,9.17,0,0,0-.9732-.1973,2.7147,2.7147,0,0,0-.7587.0544.3569.3569,0,0,0-.3069.3634.38.38,0,0,0,.2819.3881c.2589.0771.5267.1249.7915.1815s.5355.0916.7949.1662a1.1292,1.1292,0,0,1,.86.9169,1.2584,1.2584,0,0,1-.4223,1.2765,2.4015,2.4015,0,0,1-1.6423.5114,2.9061,2.9061,0,0,1-1.6142-.4612l.2536-.8513c.1259.0524.2257.09.3219.1347a2.5892,2.5892,0,0,0,1.1967.2868,1.8567,1.8567,0,0,0,.54-.11.43.43,0,0,0,.0144-.8144,2.3529,2.3529,0,0,0-.4528-.1216c-.3368-.0623-.6785-.1-1.0129-.1726a1.152,1.152,0,0,1-.99-.9909,1.23,1.23,0,0,1,.6069-1.3161,2.9,2.9,0,0,1,2.1947-.2878A5.5365,5.5365,0,0,1,30.11,34.0091Z"/><path d="M49.6687,37.07,49.45,38.3534l-1.0077-.1389.6845-4.55c.181.0164.3337.0228.484.0452.523.0779,1.0453.1608,1.5676.2434a2.3081,2.3081,0,0,1,.2513.053,1.6014,1.6014,0,0,1,.9657,2.537,1.3744,1.3744,0,0,1-1.099.6588,6.086,6.086,0,0,1-.8973-.0331C50.1722,37.1509,49.9475,37.1085,49.6687,37.07Zm.1268-.8982a3.5671,3.5671,0,0,0,1.203.1767.7242.7242,0,0,0,.6954-.6888.673.673,0,0,0-.4843-.8c-.373-.1105-.7659-.1539-1.1831-.233Z"/><path d="M34.6115,35.635a.73.73,0,0,1-.75.76.7628.7628,0,0,1-.7642-.8033.7578.7578,0,1,1,1.5143.0434Z"/><path d="M56.5962,37.2323a.7587.7587,0,1,1-1.517-.0065.7636.7636,0,0,1,.7923-.7745A.7273.7273,0,0,1,56.5962,37.2323Z"/><path d="M44.3205,35.6119a.7338.7338,0,0,1,.73-.78.781.781,0,1,1-.0038,1.5619A.7282.7282,0,0,1,44.3205,35.6119Z"/><path d="M23.3775,36.411a.769.769,0,0,1,.7378.8291.7538.7538,0,0,1-.7878.73.7688.7688,0,0,1-.73-.8341A.7237.7237,0,0,1,23.3775,36.411Z"/></g></g></svg>