<svg xmlns="http://www.w3.org/2000/svg" viewBox="0 0 135.2442 137"><g id="bf99e4da-55cd-4f15-84af-adca8d1c6bca" data-name="Layer 2"><g id="af9bd854-3095-4b4a-838f-4b1929ab8e23" data-name="NEW LIVE TYPE copy"><path d="M25.1156,14.0082l5.7445,6.26c3.4352,3.75,3.3971,6.5461.0381,9.6283-3.3589,3.0726-6.1453,2.8723-9.59-.8779l-5.7445-6.26,1.689-1.5459,5.8209,6.3457c2.252,2.4524,4.1318,2.6146,6.2789.6489s2.147-3.8551-.105-6.3171l-5.8208-6.3456ZM45.2214,18.016c2.8054-1.1832,4.0173-2.2329,3.4066-3.6738l-.0477-.105c-.6107-1.4409-1.67-1.6508-5.01-.4007-5.2387,1.9657-7.1281,1.2309-8.1492-1.2024l-.0954-.229c-1.0115-2.4047.3912-4.943,4.6376-6.7369,4.3322-1.8322,7.1377-.7634,8.3878,2.1947l.0572.1432-2.0993.8874-.0477-.124c-.792-1.88-2.51-2.2234-5.4583-.9829C37.74,9.0844,36.8909,10.22,37.4157,11.4509l.0191.0858c.563,1.336,1.6508,1.5077,5.21.21,4.8762-1.7654,6.8133-1.231,7.9774,1.5268l.0478.124c1.26,2.9772-.42,4.9716-4.609,6.7465-4.4658,1.8894-7.0137,1.1069-8.55-2.5383l-.0477-.124,2.0993-.8875.0382.0859C40.5838,18.97,42.3777,19.2184,45.2214,18.016ZM53.3324.8493,55.613.7538,59.3918,13.951,62.3213.4867,65.48.3626,69.45,13.56,72.1881.0954,74.4879,0,71.0908,15.6591l-3.1776.124L64.01,2.93,61.1094,16.05l-3.1776.124ZM83.8489,5.5346,79.8221,17.3481l-2.1566-.7348,5.01-14.6762,2.8055.9542,3.5116,13.6838L92.8092,5.3914l2.1566.7348-5.01,14.6762-2.5383-.8684Zm22.291,10.134L98.4392,26.4229l-1.8607-1.3264,7.7007-10.7543-4.18-2.9963,1.3264-1.8608,10.22,7.31L110.32,18.6554Zm9.5711,21.5085-4.5708,2.586-1.126-1.9848,13.5024-7.6339,2.9963,5.3056c1.9181,3.3971,1.231,5.7731-1.1355,7.1186l-1.1069.63c-2.3665,1.3359-4.7617.7061-6.68-2.691Zm6.9468-3.9219-4.9525,2.7959,1.8417,3.2635c1.1546,2.0421,2.252,2.6337,4.0937,1.6031l.1145-.0667c1.8416-1.04,1.8989-2.29.7443-4.3323Zm9.3229,14.1514.5535,2.2138L119.7,52.8457l1.8321,7.29-2.2138.5535-2.3952-9.5043Zm-8.235,25.8885.124-6.6225-4.065-1.5935.0381-2.3379,15.4014,6.2025-.0477,2.51-15.6209,5.6491.0478-2.357Zm2.3-.7921,6.6892-2.3474L126.1408,67.56Zm8.4068,8.97-.7252,2.5-7.8152,2.2615,5.3819,6.0881-.7252,2.5-7.1091-8.14-6.1549-1.7939.6394-2.1948,6.1548,1.794ZM109.27,100.93l5.1529-8.34L127.62,100.739l-5.1528,8.34-1.9467-1.2023,3.9506-6.3934-3.3017-2.0421-3.8265,6.2026-1.9466-1.2024,3.8265-6.2025-4.0651-2.51-3.9505,6.3934Zm-2.9581,13.0445,2.72-2.4143-4.609-5.191,1.7081-1.5173,10.2962,11.594-4.6757,4.16c-2.9773,2.6432-4.58,2.4142-6.5079.2386l-.21-.2386a3.66,3.66,0,0,1-.3912-4.9716l-7.1091-3.13,1.8608-1.66Zm6.88,2.2806-2.8055-3.1585-2.9772,2.6432c-1.5745,1.4027-1.7463,2.1661-.7348,3.3017l.1813.2c1.0115,1.1355,1.7844,1.0592,3.3589-.3436Zm-24.0182,3.1394c-2.7768,1.24-3.97,2.3188-3.33,3.7406l.0477.105c.6394,1.4218,1.6986,1.6127,5.01.2958,5.2006-2.08,7.0995-1.3836,8.1778,1.0306l.105.229c1.0687,2.3761-.2863,4.943-4.4945,6.8324-4.2941,1.918-7.1186.916-8.4355-2.023l-.0572-.1431,2.08-.9352.0573.1241c.83,1.8607,2.5573,2.1756,5.4773.8683,3.044-1.3645,3.8551-2.5192,3.3112-3.7311l-.0286-.0668c-.5917-1.3168-1.68-1.479-5.22-.1049-4.838,1.87-6.7846,1.3741-8.0061-1.355l-.0572-.1241c-1.3169-2.9486.3149-4.9811,4.4658-6.8419,4.4277-1.9848,6.985-1.25,8.6072,2.3665l.0573.1241-2.08.9351-.0382-.0859C93.7921,118.3542,91.9886,118.1347,89.1736,119.3943ZM8.903,82.7706,3.5593,78.9632l2.08,6.2217L.3722,89.0877l6.5556-.0572,2.08,6.2216,1.9657-6.26,6.5557-.0573-5.3438-3.8074,1.9658-6.26Zm16.1648,28.5222-6.5269-.6107,4.9238,4.3323-2.5955,6.0212,5.64-3.34,4.9239,4.3322-1.4313-6.403,5.6395-3.34-6.527-.6107-1.4313-6.4029Zm28.2741,15.1533-5.9926,2.6624,6.4125,1.3645L54.4393,137l3.2826-5.6777,6.4125,1.3645-4.38-4.8761,3.2826-5.6777-5.9926,2.6623-4.38-4.8762ZM10.592,50.5078,8.2446,44.3816,6.5461,50.7178,0,51.0613,5.4964,54.63,3.7979,60.9663,8.8935,56.844,14.39,60.4128l-2.3474-6.1262,5.1052-4.1127Z"/></g></g></svg>