<svg xmlns="http://www.w3.org/2000/svg" viewBox="0 0 150.3423 137"><g id="bb056f78-0996-490a-b45a-e90959c17519" data-name="Layer 2"><g id="bfc37c04-3216-416e-8801-e47e5999d918" data-name="Layer 1"><path d="M140.27,103.7912c-4.2262,0-8.4252.343-12.5444-.0837-5.5936-.5794-9.27,1.2235-12.9374,5.78-10.21,12.6883-23.4066,21.5666-38.7,27.2187a5.5893,5.5893,0,0,1-3.5793-.0016A92.8735,92.8735,0,0,1,30.5914,105.757a4.0727,4.0727,0,0,0-3.7155-1.7966c-6.7141.1024-13.43.0671-20.1458.0733-.508.0005-1.016-.0707-1.8027-.1294,0-.8651-.008-1.6612.0012-2.4571.1312-11.2662.207-22.5336.4374-33.7978a17.1671,17.1671,0,0,0-1.6193-8.2019C2.406,56.72,1.33,53.8617,0,50.7361H11.1394c0-3.1964-.0494-6.1507.0343-9.1011a3.3346,3.3346,0,0,1,.7493-2.1966A90.7783,90.7783,0,0,1,31.8983,25.8812c-.645,2.9643-1.1516,5.6292-1.8494,8.243-.1581.5923-.9262,1.0843-1.5059,1.4907-2.8693,2.0116-5.7319,4.0372-8.6742,5.9381a4.0678,4.0678,0,0,0-2.0533,4.0825c.1126,1.5483.0233,3.1112.0233,4.8553h4.0635c.2635-1.9135-.1-4.2909.9193-5.5289,1.6307-1.9806,4.1792-3.2051,6.5455-4.8963.2685,2.7489.4145,5.1164.7485,7.4571.4908,3.44.6,3.4672,4.2955,2.819-2.8837-14.956.5794-28.1606,11.5881-38.9129C54.496,3.13,64.8963-.5322,76.771.0621c23.6608,1.1841,43.2669,23.8715,37.5522,50.08,3.5579.6817,3.8511.5059,4.2452-2.9118.2559-2.2186.4057-4.4495.6429-7.1256,1.9914,1.379,3.763,2.8,5.7128,3.9085,2.6625,1.5129,1.0048,4.0772,1.8089,6.2172h3.9516c0-2.1356.0758-4.3406-.0549-6.5333-.0315-.53-.6555-1.1455-1.1607-1.5066-3.0322-2.1669-6.1661-4.1957-9.1365-6.4421a6.2145,6.2145,0,0,1-1.9854-2.8873c-.6895-2.1047-1.0568-4.315-1.6237-6.7685a7.4215,7.4215,0,0,1,1.4589.5545c5.9783,4.0487,11.9746,8.0729,17.8684,12.242a4.2709,4.2709,0,0,1,1.3517,2.8021c.2961,2.7961.3274,5.62.4746,8.6739.8682,0,1.6663-.01,2.4642.0015,7.1518.1024,11.27,5.2606,9.65,12.2885-2.7313,11.8446-5.571,23.6643-8.3674,35.4939C141.1966,99.9557,140.7576,101.76,140.27,103.7912ZM31.4964,56.8054a20.8261,20.8261,0,0,1-2.9694-.0226c-2.1366-.3431-2.94.5507-3.4084,2.6368-1.6957,7.5611-3.615,15.0721-5.4581,22.6-.1525.6231-.3665,1.2312-.6448,2.1545V56.9315H9.3118c2.41,3.5227,2.3741,7.2055,2.318,10.9386-.0964,6.4125-.0267,12.8275-.0266,19.2414V97.7369c2.8283,0,5.28-.0838,7.723.0321,1.4153.0673,1.9343-.4628,2.2391-1.7986.772-3.3836,1.715-6.7281,2.59-10.0883a54.7146,54.7146,0,0,1,.7787,9.1139c0,1.9449.4874,2.89,2.6427,2.6512a28.9835,28.9835,0,0,1,5.139-.0114c1.5979.1093,2.3143-.3709,2.7156-2.06,2.8766-12.1074,5.8874-24.1828,8.8467-36.2706.183-.7473.2912-1.5129.4776-2.5-2.1672,0-4.024.0758-5.8711-.0251a1.9,1.9,0,0,0-2.2915,1.7574c-.8256,3.6321-1.7877,7.2333-2.7031,10.8448q-1.8,7.1-3.6107,14.1969l-.3464-.0674C30.4458,74.7448,30.9592,65.9773,31.4964,56.8054Zm28.846,8.0053a26.0785,26.0785,0,0,1-1.983-4.0624c-.9368-3.4228-3.0766-4.4109-6.46-4.0246-1.5991.1825-2.3354.5479-2.7124,2.1436-1.9026,8.0525-3.912,16.08-5.8789,24.1171-1.1641,4.7567-2.3187,9.5156-3.5815,14.7,2.138,0,3.9782-.0759,5.8087.0244,1.4193.0778,2.1875-.3016,2.43-1.8416.2888-1.8345.8478-3.6266,1.2912-5.4368,1.4966-6.11,2.9939-12.22,4.5956-18.758,2.0039,3.6375,3.965,6.62,2.3808,10.7461-1.2719,3.3123-1.7814,6.9186-2.6124,10.3985-.3566,1.4932-.6705,2.9967-1.07,4.7924,2.0095,0,3.7216-.1319,5.4039.0359,1.7938.179,2.4271-.5691,2.8195-2.2327,2.3276-9.8674,4.7674-19.7083,7.157-29.5611.71-2.9261,1.3792-5.8619,2.1263-9.0453-2.3054,0-4.2341.055-6.1578-.02a1.6374,1.6374,0,0,0-1.96,1.56C61.5383,60.361,60.9636,62.341,60.3424,64.8107Zm4.7427,32.6816c4.9528,0,9.6316.0187,14.31-.0057,4.03-.021,6.437-1.8993,7.402-5.7731.9554-3.8352,1.9736-7.66,2.742-11.5341a30.8325,30.8325,0,0,0,.0525-5.4683,9.6715,9.6715,0,0,0,1.9884-2.85c.9949-3.1974,1.7056-6.49,2.402-9.7719.7026-3.31-.8551-5.1771-4.2492-5.2035-4.2533-.0331-8.51.0745-12.7594-.05-1.6451-.0482-2.1518.6061-2.4948,2.0776C72.7861,66.1763,70.99,73.4147,69.22,80.6594,67.8783,86.1541,66.5221,91.6453,65.0851,97.4923Zm61.9189.1866c2.4348,0,4.5914.0841,6.7322-.0629a2.07,2.07,0,0,0,1.3605-1.328Q139.36,79.14,143.4782,61.9557c.7128-2.9829-.9367-5.0044-3.9853-5.0639-2.9085-.0567-5.8189-.0175-8.7285-.0135-4.7256.0064-6.9116,1.73-8.0558,6.365q-3.9672,16.07-7.92,32.1435c-.1672.68-.2627,1.3779-.4347,2.298,2.2553,0,4.191-.0874,6.1142.03,1.3476.0822,1.8238-.5064,2.0919-1.7083.73-3.2742,1.5148-6.5378,2.3762-9.7795.1581-.5949.7143-1.44,1.1979-1.523a24.6061,24.6061,0,0,1,4.0263-.0726Zm-25.86-13.1831c2.1222,0,4.0561.0231,5.9892-.0048a8.3194,8.3194,0,0,0,8.2014-6.3286c1.367-5.3419,2.6451-10.7073,3.8961-16.0779.7553-3.2425-.8337-5.2317-4.1808-5.2678-4.25-.0459-8.5035.0839-12.7491-.0561-1.8014-.0594-2.3991.6213-2.7945,2.2767C96.58,71.2863,93.5526,83.5111,90.57,95.7466a17.3607,17.3607,0,0,0-.2314,1.8631c1.9327,0,3.651-.1224,5.3436.0337,1.7683.1631,2.4731-.5005,2.8259-2.2238C99.2516,91.7854,100.2345,88.2,101.1436,84.4958ZM62.9281,20.8027a49.7629,49.7629,0,0,0-19.8756,6,3.3878,3.3878,0,0,0-1.3945,1.6193A34.0745,34.0745,0,0,0,40.373,49.068c.13.53.7178,1.3325,1.12,1.3487,2.6773.1083,5.4906.5085,7.99-.1738,1.259-.3437,1.9535-2.7573,2.9023-4.2355.3623-.5646.7114-1.138,1.0844-1.6953,2.4041-3.5916,4.9469-7.0988,7.1836-10.7917A16.9063,16.9063,0,0,0,62.9281,20.8027Zm22.7566.0118a17.61,17.61,0,0,0,2.6568,13.4016c2.2541,3.6,5.3556,6.7982,6.963,10.6423,2.2386,5.3537,5.9816,6.1065,10.9037,5.566,1.3925-.1529,1.9022-.5536,2.19-1.8694a34.1838,34.1838,0,0,0-1.342-19.7966,4.327,4.327,0,0,0-1.7785-2.1061A49.4266,49.4266,0,0,0,85.6847,20.8145Zm24.333,83.38H38.9545a6.4014,6.4014,0,0,0,.4727.836,86.2234,86.2234,0,0,0,33.638,24.1373,4.3055,4.3055,0,0,0,2.9239-.1526A85.6862,85.6862,0,0,0,103.51,111.0147C105.6678,108.9176,107.672,106.6626,110.0177,104.1948ZM72.3271,50.355c-.2828-10.4893-.5582-20.7036-.8375-31.0662l-3.444.2294c0,.6769-.0334,1.1164.0051,1.5494A22.7693,22.7693,0,0,1,63.67,36.65c-1.9811,2.7934-4.15,5.4527-6.2013,8.1975-1.2747,1.7061-2.4863,3.4593-3.9522,5.5071Zm4.7571-30.966c-.26,10.3176-.5188,20.55-.78,30.8863H94.9329c-.84-1.2788-1.4646-2.3546-2.2089-3.34-2.3356-3.0912-4.7631-6.1136-7.0669-9.2279a23.8876,23.8876,0,0,1-5.0018-11.7945c-.2153-2.1121-.0371-4.2643-.0371-6.5241ZM61.53,8.0113c1.6055,1.9375,3.0091,3.3861,4.1231,5.0309,1.8416,2.7192,2.45,2.9969,5.4878,1.8618v-9.13Zm15.9029,7.3069c1.5088-.1259,3.528.3118,4.3344-.4824,1.9316-1.9023,3.2928-4.384,5.0678-6.8912L77.4332,5.7962Zm-16.6472.5271c-2.4849-4.185-5.5074-4.7951-9.1108-1.6206a60.1814,60.1814,0,0,0-4.3788,4.4626,28.5985,28.5985,0,0,0-1.8406,2.4638Zm42.35,5.266A33.5158,33.5158,0,0,0,94.1448,12.08a1.3526,1.3526,0,0,0-1.0272-.2113,9.7143,9.7143,0,0,0-5.4112,3.944Z"/><path d="M82.3867,78.5431c-.99,4.0657-1.7809,7.8417-2.857,11.5344-.6613,2.2693-2.7784.9487-4.2324,1.2724a6.7032,6.7032,0,0,1-.4673-2.392c.5081-2.6223,1.3692-5.1809,1.8-7.8122.3716-2.2717,1.3672-3.2741,3.677-2.8236C80.8706,78.4321,81.4531,78.4474,82.3867,78.5431Z"/><path d="M78.8,72.6008c.8245-3.3869,1.3745-5.9254,2.1052-8.4109a2.1614,2.1614,0,0,1,1.5086-1.1177,25.0714,25.0714,0,0,1,3.7524-.0513c-.7734,3.0566-1.0809,5.8694-2.2826,8.2261C83.41,72.1758,80.9414,72.0869,78.8,72.6008Z"/><path d="M135.3,63.5761c-1.1056,4.5444-2.1928,9.0936-3.3514,13.6245a1.4656,1.4656,0,0,1-1.0368.8613c-1.242.1092-2.5.041-4.0182.041,1.1786-4.8243,2.088-9.4341,3.5689-13.8524.2931-.8746,2.782-1.0129,4.2583-1.4908Z"/><path d="M102.7412,77.9152c1.1333-4.6753,2.1981-9.2342,3.3973-13.7575.12-.4529,1.0235-.8769,1.6219-.9827a19.8181,19.8181,0,0,1,3.1764-.0434,17.8289,17.8289,0,0,1-.2258,2.0387c-.7184,3.043-1.47,6.0782-2.2152,9.1147C107.479,78.4254,107.4767,78.4249,102.7412,77.9152Z"/><path d="M47.3515,107.3775a154.2732,154.2732,0,0,1,53.8876.0043c-.3732.4188-.7266.8812-1.1448,1.2746A81.9294,81.9294,0,0,1,75.94,124.5678a4.1561,4.1561,0,0,1-2.9113.1521A81.2062,81.2062,0,0,1,47.832,107.9974,5.0687,5.0687,0,0,1,47.3515,107.3775Zm29.3463,9.5073c-.8285-2.2239-.2442-3.9195,2.1233-5.2439-2.7833.5058-4.0472-.6489-4.5076-3.2969-.431,2.6879-1.8234,3.7866-4.5594,3.4118,2.5739,1.2265,2.8365,2.9408,1.3371,5.6026l3.237-2.07Z"/></g></g></svg>